<?xml version="1.0" encoding="utf-8"?>
<!-- Generator: Adobe Illustrator 15.1.0, SVG Export Plug-In  -->
<!DOCTYPE svg PUBLIC "-//W3C//DTD SVG 1.1//EN" "http://www.w3.org/Graphics/SVG/1.1/DTD/svg11.dtd" [
	<!ENTITY ns_flows "http://ns.adobe.com/Flows/1.0/">
]>
<svg version="1.1"
	 xmlns="http://www.w3.org/2000/svg" xmlns:xlink="http://www.w3.org/1999/xlink" xmlns:a="http://ns.adobe.com/AdobeSVGViewerExtensions/3.0/"
	 x="0px" y="0px" width="354px" height="62px" viewBox="-2.296 -4.9 354 62" enable-background="new -2.296 -4.9 354 62"
	 xml:space="preserve">
<defs>
</defs>
<g>
	<path fill="#3399CC" d="M346.079,27.765h-14.935l-7.705,3.729c3.359,1.416,5.716,4.738,5.716,8.611c0,5.16-4.181,9.341-9.343,9.341
		c-5.157,0-9.341-4.182-9.341-9.341c0-0.866,0.122-1.705,0.341-2.5l-18.531,8.969v4.681c0,0.699,0.566,1.266,1.264,1.266h52.533
		c0.702,0,1.268-0.567,1.268-1.266V29.031C347.347,28.331,346.781,27.765,346.079,27.765z"/>
</g>
<g>
	<path fill="#3399CC" d="M320.708,36.207c0.883,0,1.551,0.23,2.014,0.689l0.477-2.245c-0.671-0.329-1.458-0.496-2.369-0.496
		c-1.664,0-3.007,0.547-4.03,1.638c-0.674,0.725-1.126,1.624-1.354,2.701h-0.964l-0.259,1.256h1.061
		c-0.011,0.189-0.017,0.409-0.017,0.658c0,0.146,0.003,0.283,0.008,0.413h-0.793l-0.259,1.257h1.199
		c0.222,1.098,0.679,2.013,1.372,2.749c1.016,1.08,2.312,1.622,3.89,1.622c0.936,0,1.754-0.176,2.458-0.527v-2.481
		c-0.618,0.639-1.443,0.958-2.482,0.958c-0.863,0-1.567-0.319-2.108-0.958c-0.278-0.331-0.488-0.784-0.624-1.362h3.698l0.26-1.257
		h-4.128c-0.011-0.205-0.016-0.403-0.016-0.591c0-0.195,0.002-0.355,0.008-0.479h4.363l0.257-1.256h-4.458
		c0.13-0.536,0.349-0.981,0.658-1.338C319.114,36.523,319.829,36.207,320.708,36.207z"/>
</g>
<g>
	<path fill="#3399CC" d="M337.079,21.115l-9.684-20.006c-0.304-0.63-1.062-0.893-1.689-0.588L278.42,23.409
		c-0.63,0.303-0.893,1.061-0.59,1.689l9.685,20.005c0.303,0.628,1.061,0.893,1.689,0.588l47.285-22.888
		C337.12,22.5,337.383,21.744,337.079,21.115z M311.508,31.48c-4.645,2.248-10.229,0.306-12.478-4.339
		c-2.25-4.644-0.306-10.23,4.339-12.479s10.232-0.306,12.478,4.339C318.094,23.646,316.153,29.232,311.508,31.48z"/>
</g>
<g>
	<path fill="#3399CC" d="M310,21.455c-0.623-0.277-1.545-0.302-2.777-0.07l-1.286-2.655c0.533-0.022,0.98,0.209,1.343,0.693
		l1.611-1.056c-0.447-0.622-0.983-1.034-1.603-1.232c-0.623-0.199-1.315-0.168-2.076,0.093l-0.325-0.671l-0.985,0.477l0.325,0.672
		c-0.742,0.455-1.224,1.048-1.448,1.78c-0.225,0.73-0.157,1.468,0.203,2.211c0.355,0.732,0.864,1.256,1.527,1.57
		c0.663,0.313,1.499,0.383,2.509,0.206l1.377,2.848c-0.3,0.001-0.615-0.084-0.942-0.249c-0.324-0.167-0.611-0.413-0.86-0.74
		l-1.681,1.048c0.568,0.826,1.215,1.366,1.94,1.618c0.726,0.253,1.502,0.237,2.333-0.047l0.598,1.237l0.985-0.478l-0.614-1.271
		c0.82-0.553,1.343-1.231,1.567-2.033s0.138-1.612-0.257-2.432C311.108,22.238,310.621,21.733,310,21.455z M305.18,21.355
		c-0.243-0.135-0.425-0.323-0.539-0.563c-0.127-0.264-0.165-0.543-0.111-0.836c0.051-0.295,0.192-0.551,0.414-0.771l1.137,2.352
		C305.727,21.552,305.426,21.492,305.18,21.355z M310.027,25.062c-0.092,0.356-0.292,0.648-0.601,0.875l-1.28-2.65
		c0.463-0.079,0.839-0.053,1.123,0.08c0.285,0.133,0.501,0.352,0.647,0.656C310.082,24.361,310.117,24.709,310.027,25.062z"/>
</g>
<path fill="#3399CC" d="M27.72,44.244c1.68,0,3.168-0.144,4.464-0.432c1.296-0.288,2.52-0.672,3.672-1.152v-7.956h-5.184
	c-0.768,0-1.368-0.204-1.8-0.612c-0.432-0.408-0.648-0.924-0.648-1.548v-6.696h18.648v22.14c-1.344,0.984-2.742,1.831-4.194,2.538
	c-1.453,0.708-3,1.291-4.644,1.746c-1.644,0.456-3.396,0.792-5.256,1.008c-1.86,0.216-3.858,0.324-5.994,0.324
	c-3.84,0-7.393-0.678-10.656-2.034c-3.264-1.355-6.09-3.228-8.478-5.616c-2.388-2.388-4.26-5.22-5.616-8.496
	C0.678,34.182,0,30.624,0,26.784c0-3.912,0.648-7.506,1.944-10.782C3.24,12.726,5.094,9.9,7.506,7.524
	C9.918,5.148,12.834,3.3,16.254,1.98C19.674,0.66,23.496,0,27.72,0c2.184,0,4.235,0.18,6.156,0.54c1.92,0.36,3.69,0.852,5.31,1.476
	c1.62,0.625,3.102,1.368,4.446,2.232c1.344,0.864,2.543,1.8,3.6,2.808l-3.528,5.364c-0.336,0.504-0.738,0.9-1.206,1.188
	c-0.468,0.288-0.978,0.432-1.53,0.432c-0.72,0-1.464-0.24-2.232-0.72c-0.96-0.576-1.867-1.074-2.718-1.494
	c-0.852-0.419-1.722-0.762-2.61-1.026c-0.888-0.264-1.824-0.456-2.808-0.576c-0.984-0.12-2.088-0.18-3.312-0.18
	c-2.28,0-4.333,0.402-6.156,1.206c-1.824,0.804-3.378,1.938-4.662,3.402c-1.284,1.464-2.274,3.222-2.97,5.274
	c-0.696,2.052-1.044,4.338-1.044,6.858c0,2.785,0.384,5.256,1.152,7.416c0.768,2.16,1.83,3.984,3.186,5.472
	c1.356,1.488,2.964,2.623,4.824,3.402C23.478,43.854,25.512,44.244,27.72,44.244z"/>
<path fill="#3399CC" d="M106.055,26.784c0,3.792-0.654,7.32-1.962,10.584c-1.309,3.264-3.15,6.102-5.526,8.514
	s-5.238,4.302-8.586,5.67c-3.348,1.368-7.063,2.052-11.142,2.052c-4.081,0-7.8-0.684-11.16-2.052
	c-3.36-1.368-6.234-3.258-8.622-5.67s-4.236-5.25-5.544-8.514c-1.308-3.264-1.962-6.792-1.962-10.584
	c0-3.792,0.654-7.32,1.962-10.584c1.308-3.264,3.156-6.096,5.544-8.496c2.388-2.399,5.262-4.284,8.622-5.652
	C71.039,0.684,74.759,0,78.839,0c4.08,0,7.794,0.69,11.142,2.07c3.348,1.38,6.21,3.271,8.586,5.67
	c2.376,2.4,4.217,5.232,5.526,8.496C105.401,19.5,106.055,23.016,106.055,26.784z M93.599,26.784c0-2.592-0.336-4.926-1.008-7.002
	c-0.672-2.076-1.638-3.834-2.898-5.274c-1.26-1.44-2.802-2.543-4.626-3.312c-1.824-0.768-3.9-1.152-6.228-1.152
	c-2.353,0-4.446,0.384-6.282,1.152c-1.836,0.769-3.384,1.872-4.644,3.312c-1.26,1.44-2.226,3.198-2.898,5.274
	c-0.672,2.076-1.008,4.41-1.008,7.002c0,2.616,0.336,4.962,1.008,7.038c0.672,2.076,1.638,3.834,2.898,5.274
	c1.26,1.44,2.808,2.538,4.644,3.294c1.836,0.756,3.93,1.134,6.282,1.134c2.328,0,4.404-0.378,6.228-1.134
	c1.824-0.756,3.366-1.854,4.626-3.294c1.26-1.44,2.226-3.198,2.898-5.274C93.263,31.746,93.599,29.4,93.599,26.784z"/>
<path fill="#3399CC" d="M147.814,0.576v9.648h-14.76v42.804h-12.168V10.224h-14.76V0.576H147.814z"/>
<path fill="#3399CC" d="M202.462,26.784c0,3.792-0.654,7.32-1.962,10.584c-1.309,3.264-3.15,6.102-5.526,8.514
	s-5.238,4.302-8.586,5.67c-3.348,1.368-7.063,2.052-11.142,2.052c-4.081,0-7.8-0.684-11.16-2.052
	c-3.36-1.368-6.234-3.258-8.622-5.67s-4.236-5.25-5.544-8.514c-1.308-3.264-1.962-6.792-1.962-10.584
	c0-3.792,0.654-7.32,1.962-10.584c1.308-3.264,3.156-6.096,5.544-8.496c2.388-2.399,5.262-4.284,8.622-5.652
	c3.36-1.368,7.08-2.052,11.16-2.052c4.08,0,7.794,0.69,11.142,2.07c3.348,1.38,6.21,3.271,8.586,5.67
	c2.376,2.4,4.217,5.232,5.526,8.496C201.808,19.5,202.462,23.016,202.462,26.784z M190.006,26.784c0-2.592-0.336-4.926-1.008-7.002
	c-0.672-2.076-1.638-3.834-2.898-5.274c-1.26-1.44-2.802-2.543-4.626-3.312c-1.824-0.768-3.9-1.152-6.228-1.152
	c-2.353,0-4.446,0.384-6.282,1.152c-1.836,0.769-3.384,1.872-4.644,3.312c-1.26,1.44-2.226,3.198-2.898,5.274
	c-0.672,2.076-1.008,4.41-1.008,7.002c0,2.616,0.336,4.962,1.008,7.038c0.672,2.076,1.638,3.834,2.898,5.274
	c1.26,1.44,2.808,2.538,4.644,3.294c1.836,0.756,3.93,1.134,6.282,1.134c2.328,0,4.404-0.378,6.228-1.134
	c1.824-0.756,3.366-1.854,4.626-3.294c1.26-1.44,2.226-3.198,2.898-5.274C189.67,31.746,190.006,29.4,190.006,26.784z"/>
<path fill="#3399CC" d="M208.293,53.028V0.576h19.296c3.624,0,6.708,0.336,9.252,1.008c2.543,0.672,4.62,1.62,6.228,2.844
	c1.607,1.224,2.777,2.712,3.51,4.464c0.732,1.752,1.098,3.708,1.098,5.868c0,1.176-0.168,2.31-0.504,3.402
	c-0.336,1.093-0.864,2.119-1.584,3.078c-0.72,0.96-1.645,1.831-2.772,2.61c-1.128,0.78-2.484,1.458-4.068,2.034
	c3.456,0.84,6.012,2.202,7.668,4.086c1.656,1.884,2.484,4.302,2.484,7.254c0,2.232-0.432,4.309-1.296,6.228
	c-0.864,1.92-2.13,3.595-3.798,5.022c-1.668,1.428-3.726,2.544-6.174,3.348c-2.448,0.804-5.244,1.206-8.388,1.206H208.293z
	 M220.461,22.644h6.336c1.344,0,2.556-0.096,3.636-0.288c1.08-0.192,1.998-0.528,2.754-1.008c0.756-0.479,1.332-1.14,1.728-1.98
	c0.396-0.84,0.594-1.896,0.594-3.168c0-1.248-0.157-2.286-0.468-3.114c-0.312-0.828-0.792-1.494-1.44-1.998s-1.47-0.864-2.466-1.08
	c-0.996-0.216-2.178-0.324-3.546-0.324h-7.128V22.644z M220.461,30.78v13.068h8.568c1.607,0,2.921-0.204,3.942-0.612
	c1.02-0.408,1.818-0.936,2.394-1.584c0.576-0.648,0.972-1.38,1.188-2.196c0.216-0.816,0.324-1.644,0.324-2.484
	c0-0.959-0.126-1.823-0.378-2.592c-0.252-0.768-0.684-1.416-1.296-1.944s-1.422-0.936-2.43-1.224
	c-1.008-0.288-2.28-0.432-3.816-0.432H220.461z"/>
<path fill="#3399CC" d="M268.845,53.028h-12.24V0.576h12.24V53.028z"/>
</svg>
